<svg width="25" height="25" viewBox="0 0 25 25" fill="none" xmlns="http://www.w3.org/2000/svg">
<path d="M2.77778 22.2222H4.75694L18.3333 8.64583L16.3542 6.66667L2.77778 20.2431V22.2222ZM0 25V19.0972L18.3333 0.798611C18.6111 0.543981 18.918 0.347222 19.2542 0.208333C19.5903 0.0694446 19.943 0 20.3125 0C20.6819 0 21.0407 0.0694446 21.3889 0.208333C21.737 0.347222 22.038 0.555555 22.2917 0.833333L24.2014 2.77778C24.4792 3.03241 24.6819 3.33333 24.8097 3.68056C24.9375 4.02778 25.0009 4.375 25 4.72222C25 5.09259 24.9366 5.44583 24.8097 5.78194C24.6829 6.11806 24.4801 6.42454 24.2014 6.70139L5.90278 25H0ZM17.3264 7.67361L16.3542 6.66667L18.3333 8.64583L17.3264 7.67361Z" fill="black"/>
</svg>
