<svg width="75" height="75" viewBox="0 0 75 75" fill="none" xmlns="http://www.w3.org/2000/svg">
<path d="M37.5 4.6875C37.5 3.4443 37.9939 2.25201 38.8729 1.37294C39.752 0.49386 40.9443 0 42.1875 0L70.3125 0C71.5557 0 72.748 0.49386 73.6271 1.37294C74.5061 2.25201 75 3.4443 75 4.6875V70.3125C75 71.5557 74.5061 72.748 73.6271 73.6271C72.748 74.5061 71.5557 75 70.3125 75H42.1875C40.9443 75 39.752 74.5061 38.8729 73.6271C37.9939 72.748 37.5 71.5557 37.5 70.3125V4.6875ZM42.1875 67.9688C42.1875 68.5904 42.4344 69.1865 42.874 69.626C43.3135 70.0656 43.9096 70.3125 44.5312 70.3125C45.1529 70.3125 45.749 70.0656 46.1885 69.626C46.6281 69.1865 46.875 68.5904 46.875 67.9688C46.875 67.3471 46.6281 66.751 46.1885 66.3115C45.749 65.8719 45.1529 65.625 44.5312 65.625C43.9096 65.625 43.3135 65.8719 42.874 66.3115C42.4344 66.751 42.1875 67.3471 42.1875 67.9688ZM51.5625 67.9688C51.5625 68.5904 51.8094 69.1865 52.249 69.626C52.6885 70.0656 53.2846 70.3125 53.9062 70.3125C54.5279 70.3125 55.124 70.0656 55.5635 69.626C56.0031 69.1865 56.25 68.5904 56.25 67.9688C56.25 67.3471 56.0031 66.751 55.5635 66.3115C55.124 65.8719 54.5279 65.625 53.9062 65.625C53.2846 65.625 52.6885 65.8719 52.249 66.3115C51.8094 66.751 51.5625 67.3471 51.5625 67.9688ZM44.5312 4.6875C43.9096 4.6875 43.3135 4.93443 42.874 5.37397C42.4344 5.81351 42.1875 6.40965 42.1875 7.03125C42.1875 7.65285 42.4344 8.24899 42.874 8.68853C43.3135 9.12807 43.9096 9.375 44.5312 9.375H67.9688C68.5904 9.375 69.1865 9.12807 69.626 8.68853C70.0656 8.24899 70.3125 7.65285 70.3125 7.03125C70.3125 6.40965 70.0656 5.81351 69.626 5.37397C69.1865 4.93443 68.5904 4.6875 67.9688 4.6875H44.5312ZM42.1875 16.4062C42.1875 17.0279 42.4344 17.624 42.874 18.0635C43.3135 18.5031 43.9096 18.75 44.5312 18.75H67.9688C68.5904 18.75 69.1865 18.5031 69.626 18.0635C70.0656 17.624 70.3125 17.0279 70.3125 16.4062C70.3125 15.7846 70.0656 15.1885 69.626 14.749C69.1865 14.3094 68.5904 14.0625 67.9688 14.0625H44.5312C43.9096 14.0625 43.3135 14.3094 42.874 14.749C42.4344 15.1885 42.1875 15.7846 42.1875 16.4062ZM7.03125 9.375C5.16645 9.375 3.37802 10.1158 2.05941 11.4344C0.74079 12.753 0 14.5414 0 16.4062L0 49.2188C0 51.0836 0.74079 52.872 2.05941 54.1906C3.37802 55.5092 5.16645 56.25 7.03125 56.25H28.125V65.625H25.7812C25.1596 65.625 24.5635 65.8719 24.124 66.3115C23.6844 66.751 23.4375 67.3471 23.4375 67.9688C23.4375 68.5904 23.6844 69.1865 24.124 69.626C24.5635 70.0656 25.1596 70.3125 25.7812 70.3125H32.8125V51.5625H7.03125C6.40965 51.5625 5.81351 51.3156 5.37397 50.876C4.93443 50.4365 4.6875 49.8404 4.6875 49.2188V16.4062C4.6875 15.7846 4.93443 15.1885 5.37397 14.749C5.81351 14.3094 6.40965 14.0625 7.03125 14.0625H32.8125V9.375H7.03125Z" fill="black"/>
</svg>
