<svg width="25" height="25" viewBox="0 0 25 25" fill="none" xmlns="http://www.w3.org/2000/svg">
<path d="M24.6337 22.865C24.7498 22.9812 24.842 23.119 24.9048 23.2708C24.9676 23.4225 25 23.5851 25 23.7494C25 23.9136 24.9676 24.0762 24.9048 24.228C24.842 24.3797 24.7498 24.5176 24.6337 24.6337C24.5176 24.7498 24.3797 24.842 24.228 24.9048C24.0762 24.9676 23.9136 25 23.7494 25C23.5851 25 23.4225 24.9676 23.2708 24.9048C23.119 24.842 22.9812 24.7498 22.865 24.6337L12.5 14.2671L2.13495 24.6337C1.90041 24.8682 1.58231 25 1.25063 25C0.918939 25 0.600837 24.8682 0.3663 24.6337C0.131762 24.3992 6.53833e-09 24.0811 0 23.7494C-6.53833e-09 23.4177 0.131762 23.0996 0.3663 22.865L10.7329 12.5L0.3663 2.13495C0.131762 1.90041 -2.47126e-09 1.58231 0 1.25063C2.47126e-09 0.918939 0.131762 0.600837 0.3663 0.3663C0.600837 0.131762 0.918939 2.47126e-09 1.25063 0C1.58231 -2.47126e-09 1.90041 0.131762 2.13495 0.3663L12.5 10.7329L22.865 0.3663C23.0996 0.131762 23.4177 -6.53833e-09 23.7494 0C24.0811 6.53833e-09 24.3992 0.131762 24.6337 0.3663C24.8682 0.600837 25 0.918939 25 1.25063C25 1.58231 24.8682 1.90041 24.6337 2.13495L14.2671 12.5L24.6337 22.865Z" fill="black"/>
</svg>
