<svg width="30" height="26" viewBox="0 0 30 26" fill="none" xmlns="http://www.w3.org/2000/svg">
<path d="M10 23.7143C10 23.2407 10.1317 22.7865 10.3661 22.4516C10.6005 22.1167 10.9185 21.9286 11.25 21.9286H18.75C19.0815 21.9286 19.3995 22.1167 19.6339 22.4516C19.8683 22.7865 20 23.2407 20 23.7143C20 24.1879 19.8683 24.6421 19.6339 24.977C19.3995 25.3119 19.0815 25.5 18.75 25.5H11.25C10.9185 25.5 10.6005 25.3119 10.3661 24.977C10.1317 24.6421 10 24.1879 10 23.7143ZM5 13C5 12.5264 5.1317 12.0722 5.36612 11.7373C5.60054 11.4024 5.91848 11.2143 6.25 11.2143H23.75C24.0815 11.2143 24.3995 11.4024 24.6339 11.7373C24.8683 12.0722 25 12.5264 25 13C25 13.4736 24.8683 13.9278 24.6339 14.2627C24.3995 14.5976 24.0815 14.7857 23.75 14.7857H6.25C5.91848 14.7857 5.60054 14.5976 5.36612 14.2627C5.1317 13.9278 5 13.4736 5 13ZM0 2.28571C0 1.81211 0.131696 1.35791 0.366117 1.02302C0.600537 0.688138 0.918479 0.5 1.25 0.5H28.75C29.0815 0.5 29.3995 0.688138 29.6339 1.02302C29.8683 1.35791 30 1.81211 30 2.28571C30 2.75932 29.8683 3.21352 29.6339 3.5484C29.3995 3.88329 29.0815 4.07143 28.75 4.07143H1.25C0.918479 4.07143 0.600537 3.88329 0.366117 3.5484C0.131696 3.21352 0 2.75932 0 2.28571Z" fill="black"/>
</svg>
