<svg width="800" height="800" viewBox="0 0 800 800" fill="none" xmlns="http://www.w3.org/2000/svg">
<mask id="mask0_357_4" style="mask-type:luminance" maskUnits="userSpaceOnUse" x="6" y="6" width="788" height="788">
<path d="M6.39062 6.39062H793.594V793.594H6.39062V6.39062Z" fill="white"/>
</mask>
<g mask="url(#mask0_357_4)">
<path d="M793.594 400C793.594 616.484 616.469 793.609 399.984 793.609C183.5 793.603 6.39062 616.484 6.39062 400C6.39062 183.516 183.516 6.39062 400 6.39062C616.484 6.39062 793.594 183.516 793.594 400ZM739.473 400C739.473 213.031 586.953 60.5156 399.989 60.5156C213.036 60.5156 60.5047 213.036 60.5047 400C60.5047 586.953 213.025 739.484 399.989 739.484C586.942 739.484 739.473 586.964 739.473 400Z" fill="white"/>
</g>
<path fill-rule="evenodd" clip-rule="evenodd" d="M400 552.516C414.758 552.516 427.063 564.814 427.063 579.578C427.063 594.336 414.764 606.641 400 606.641C385.242 606.641 372.938 594.342 372.938 579.578C372.938 564.814 385.236 552.516 400 552.516Z" fill="white"/>
<path d="M400 193.359C476.258 193.359 537.763 254.858 537.763 331.122C537.763 397.541 491.022 454.12 427.063 466.425V473.804C427.063 510.706 372.942 510.706 372.942 473.804V441.821C372.942 424.603 387.7 414.759 400.005 414.759C446.745 414.759 483.647 377.857 483.647 331.117C483.647 284.376 446.745 247.475 400.005 247.475C353.264 247.475 316.362 284.376 316.362 331.117C316.362 368.018 262.242 368.018 262.242 331.117C262.236 254.859 323.734 193.36 399.998 193.36L400 193.359Z" fill="white"/>
</svg>
