<svg width="21" height="18" viewBox="0 0 21 18" fill="none" xmlns="http://www.w3.org/2000/svg">
<path d="M19.9558 8.24232C19.1689 6.60136 18.2324 5.26306 17.1464 4.22743L16.0075 5.35479C16.9362 6.23332 17.7452 7.38262 18.4448 8.81398C16.5823 12.6295 13.9387 14.4419 10.3257 14.4419C9.24121 14.4419 8.24231 14.2766 7.32899 13.946L6.0949 15.1676C7.36339 15.7473 8.77366 16.0372 10.3257 16.0372C14.6281 16.0372 17.8381 13.8193 19.9558 9.38342C20.0409 9.20502 20.0851 9.01017 20.0851 8.81287C20.0851 8.61557 20.0409 8.42072 19.9558 8.24232ZM18.5328 1.13783L17.5785 0.192155C17.5618 0.175674 17.5421 0.162599 17.5204 0.153679C17.4986 0.144759 17.4753 0.140167 17.4518 0.140167C17.4282 0.140167 17.4049 0.144759 17.3832 0.153679C17.3615 0.162599 17.3417 0.175674 17.3251 0.192155L14.8768 2.61438C13.527 1.93194 12.0099 1.59072 10.3257 1.59072C6.02327 1.59072 2.81324 3.80866 0.695609 8.24454C0.61049 8.42294 0.566345 8.61779 0.566345 8.81508C0.566345 9.01238 0.61049 9.20723 0.695609 9.38563C1.54162 11.1493 2.56014 12.5631 3.75118 13.6267L1.38238 15.9708C1.34883 16.004 1.32997 16.0491 1.32997 16.0961C1.32997 16.1431 1.34883 16.1881 1.38238 16.2214L2.33801 17.1673C2.37159 17.2005 2.41712 17.2191 2.46459 17.2191C2.51207 17.2191 2.5576 17.2005 2.59118 17.1673L18.5328 1.38865C18.5494 1.37218 18.5626 1.35263 18.5716 1.33111C18.5806 1.3096 18.5853 1.28653 18.5853 1.26324C18.5853 1.23994 18.5806 1.21687 18.5716 1.19536C18.5626 1.17384 18.5494 1.15429 18.5328 1.13783ZM2.20661 8.81398C4.07129 4.9985 6.71497 3.18604 10.3257 3.18604C11.5466 3.18604 12.6567 3.39343 13.6638 3.81508L12.0901 5.37274C11.3448 4.97914 10.4915 4.83307 9.65594 4.95606C8.82041 5.07905 8.04694 5.4646 7.44963 6.05583C6.85232 6.64705 6.46281 7.41265 6.33855 8.23967C6.2143 9.0667 6.36187 9.91135 6.75952 10.649L4.89215 12.4974C3.85863 11.5945 2.9677 10.3712 2.20661 8.81398ZM7.72902 8.81398C7.72941 8.42327 7.82291 8.03816 8.00191 7.68993C8.18092 7.34171 8.44039 7.04019 8.75925 6.80988C9.0781 6.57956 9.44735 6.42694 9.83699 6.36441C10.2266 6.30188 10.6257 6.33122 11.0017 6.45002L7.84788 9.57175C7.76883 9.32678 7.72873 9.07114 7.72902 8.81398Z" fill="black" fill-opacity="0.44"/>
<path d="M10.236 11.2958C10.1585 11.2958 10.0822 11.2922 10.0065 11.2854L8.82417 12.4557C9.53532 12.7253 10.3101 12.7852 11.055 12.6282C11.7998 12.4712 12.4827 12.104 13.0212 11.571C13.5597 11.038 13.9306 10.362 14.0892 9.6248C14.2479 8.88757 14.1873 8.12063 13.915 7.41672L12.7326 8.58707C12.7395 8.66196 12.7431 8.73751 12.7431 8.81418C12.7433 9.14012 12.6786 9.46289 12.5526 9.76406C12.4267 10.0652 12.242 10.3389 12.0092 10.5693C11.7764 10.7998 11.4999 10.9826 11.1956 11.1072C10.8914 11.2319 10.5653 11.296 10.236 11.2958Z" fill="black" fill-opacity="0.44"/>
</svg>
