<svg width="19" height="14" viewBox="0 0 19 14" fill="none" xmlns="http://www.w3.org/2000/svg">
<path d="M18.9583 6.78192C18.9309 6.71192 18.261 5.05615 16.7652 3.38872C15.3772 1.84333 12.9925 0 9.5 0C6.0075 0 3.62281 1.84333 2.23483 3.38872C0.738959 5.05615 0.0691206 6.70923 0.0417474 6.78192C0.0142231 6.85085 0 6.92545 0 7.0009C0 7.07634 0.0142231 7.15095 0.0417474 7.21987C0.0691206 7.28897 0.738959 8.94474 2.23483 10.6122C3.62281 12.1576 6.0075 14 9.5 14C12.9925 14 15.3772 12.1576 16.7652 10.6122C18.261 8.94474 18.9309 7.29167 18.9583 7.21987C18.9858 7.15095 19 7.07634 19 7.0009C19 6.92545 18.9858 6.85085 18.9583 6.78192ZM9.5 12.9231C6.97361 12.9231 4.76765 11.8982 2.9425 9.87808C2.17743 9.03046 1.53 8.06044 1.02155 7C1.52986 5.93973 2.17731 4.96999 2.9425 4.12282C4.76765 2.1018 6.97361 1.07692 9.5 1.07692C12.0264 1.07692 14.2323 2.1018 16.0575 4.12282C16.8227 4.96999 17.4701 5.93973 17.9785 7C17.4656 8.09577 14.8941 12.9231 9.5 12.9231ZM9.5 2.87179C8.76753 2.87179 8.05151 3.11391 7.44248 3.56752C6.83346 4.02114 6.35878 4.66587 6.07847 5.4202C5.79817 6.17454 5.72483 7.00458 5.86773 7.80537C6.01062 8.60617 6.36334 9.34174 6.88128 9.91908C7.39921 10.4964 8.0591 10.8896 8.7775 11.0489C9.49589 11.2082 10.2405 11.1264 10.9172 10.814C11.594 10.5015 12.1724 9.97239 12.5793 9.29351C12.9862 8.61463 13.2034 7.81648 13.2034 7C13.2022 5.90557 12.8116 4.85637 12.1173 4.08249C11.4231 3.30861 10.4818 2.87322 9.5 2.87179ZM9.5 10.0513C8.95861 10.0513 8.42938 9.87233 7.97923 9.53705C7.52908 9.20177 7.17823 8.72522 6.97104 8.16767C6.76386 7.61013 6.70966 6.99662 6.81528 6.40472C6.9209 5.81283 7.1816 5.26915 7.56442 4.84242C7.94724 4.41569 8.43499 4.12508 8.96598 4.00735C9.49696 3.88961 10.0473 3.95004 10.5475 4.18098C11.0477 4.41193 11.4752 4.80302 11.776 5.3048C12.0768 5.80658 12.2373 6.39651 12.2373 7C12.2373 7.80925 11.9489 8.58536 11.4356 9.15758C10.9222 9.72981 10.226 10.0513 9.5 10.0513Z" fill="black" fill-opacity="0.44"/>
</svg>
