<svg width="23" height="25" viewBox="0 0 23 25" fill="none" xmlns="http://www.w3.org/2000/svg">
<g id="person_24px">
<path id="icon/social/person_24px" fill-rule="evenodd" clip-rule="evenodd" d="M11.5404 4.70571C9.50341 4.70571 7.85353 6.5054 7.85353 8.72736C7.85353 10.9493 9.50341 12.749 11.5404 12.749C13.5774 12.749 15.2273 10.9493 15.2273 8.72736C15.2273 6.5054 13.5774 4.70571 11.5404 4.70571ZM13.3837 8.72748C13.3837 7.62152 12.5542 6.71665 11.5403 6.71665C10.5264 6.71665 9.69686 7.62152 9.69686 8.72748C9.69686 9.83343 10.5264 10.7383 11.5403 10.7383C12.5542 10.7383 13.3837 9.83343 13.3837 8.72748ZM17.0706 18.7815C16.8863 18.0676 14.0289 16.7707 11.5403 16.7707C9.06088 16.7707 6.22199 18.0576 6.01 18.7815H17.0706ZM4.16668 18.7815C4.16668 16.1071 9.07943 14.7598 11.5404 14.7598C14.0014 14.7598 18.9142 16.1071 18.9142 18.7815V20.7923H4.16668V18.7815Z" fill="black" fill-opacity="0.44"/>
</g>
</svg>
