<svg width="75" height="75" viewBox="0 0 75 75" fill="none" xmlns="http://www.w3.org/2000/svg">
<path d="M6.35196 28.6105C14.4393 17.5279 25.41 10.7143 37.5059 10.7143C49.6017 10.7143 60.5724 17.5279 68.6598 28.6105C70.16 30.6529 72.5276 30.5859 73.9576 28.4598C75.3875 26.3337 75.3406 22.9353 73.8521 20.8929C64.4286 7.95201 51.6177 0 37.5059 0C23.394 0 10.5832 7.95201 1.14792 20.8761C-0.340623 22.9353 -0.387506 26.317 1.04243 28.4598C2.47237 30.6027 4.85169 30.6696 6.34024 28.6105H6.35196ZM37.5059 37.5C44.1633 37.5 50.2347 41.0324 54.8761 46.875C56.435 48.8337 58.8026 48.6161 60.1739 46.4063C61.5452 44.1964 61.3929 40.798 59.8457 38.8393C53.8915 31.3393 46.062 26.7857 37.5059 26.7857C28.9497 26.7857 21.1202 31.3393 15.1777 38.8393C13.6189 40.798 13.4782 44.1797 14.8495 46.4063C16.2209 48.6328 18.5885 48.8337 20.1473 46.875C24.7771 41.0324 30.8484 37.5 37.5176 37.5H37.5059ZM45.0072 64.2857C45.0072 61.4441 44.2169 58.7189 42.8101 56.7096C41.4033 54.7003 39.4953 53.5714 37.5059 53.5714C35.5164 53.5714 33.6084 54.7003 32.2016 56.7096C30.7949 58.7189 30.0045 61.4441 30.0045 64.2857C30.0045 67.1273 30.7949 69.8525 32.2016 71.8619C33.6084 73.8712 35.5164 75 37.5059 75C39.4953 75 41.4033 73.8712 42.8101 71.8619C44.2169 69.8525 45.0072 67.1273 45.0072 64.2857Z" fill="black"/>
</svg>
