<svg width="800" height="800" viewBox="0 0 800 800" fill="none" xmlns="http://www.w3.org/2000/svg">
<path d="M610.969 545.625L483.442 418.098C481.08 415.736 478.718 414.162 476.356 412.587C493.672 384.248 503.907 350.398 503.907 314.973C503.907 211.06 418.892 126.051 314.986 126.051C211.073 126.051 126.064 211.067 126.064 314.973C126.064 418.885 211.079 503.895 314.986 503.895C351.198 503.895 384.261 493.659 413.387 476.343C414.962 478.705 416.537 481.067 418.111 483.429L545.638 610.956C551.149 616.467 559.023 619.617 567.677 619.617C576.338 619.617 583.424 616.468 589.716 610.956L611.755 588.917C622.784 577.107 622.784 557.429 610.974 545.619L610.969 545.625ZM157.531 315.766C157.531 229.175 228.381 158.328 314.969 158.328C401.559 158.328 472.406 229.178 472.406 315.766C472.406 402.356 401.556 473.203 314.969 473.203C228.378 473.203 157.531 402.359 157.531 315.766ZM462.187 440.93L527.525 506.267L506.272 527.52L440.934 462.183L462.187 440.93Z" fill="black"/>
</svg>
