<svg width="75" height="75" viewBox="0 0 75 75" fill="none" xmlns="http://www.w3.org/2000/svg">
<path d="M18.75 68.75C17.0312 68.75 15.5604 68.1385 14.3375 66.9156C13.1146 65.6927 12.5021 64.2208 12.5 62.5V12.5C12.5 10.7812 13.1125 9.31042 14.3375 8.0875C15.5625 6.86458 17.0333 6.25208 18.75 6.25H41.1719C42.0052 6.25 42.8 6.40625 43.5562 6.71875C44.3125 7.03125 44.976 7.47396 45.5469 8.04688L60.7031 23.2031C61.276 23.776 61.7188 24.4406 62.0312 25.1969C62.3438 25.9531 62.5 26.7469 62.5 27.5781V62.5C62.5 64.2188 61.8885 65.6906 60.6656 66.9156C59.4427 68.1406 57.9708 68.7521 56.25 68.75H18.75ZM40.625 25V12.5H18.75V62.5H56.25V28.125H43.75C42.8646 28.125 42.1229 27.825 41.525 27.225C40.9271 26.625 40.6271 25.8833 40.625 25Z" fill="black"/>
</svg>
