<svg width="75" height="75" viewBox="0 0 75 75" fill="none" xmlns="http://www.w3.org/2000/svg">
<path d="M72.3214 69.6429H64.2857V5.35714H66.9643C67.6747 5.35714 68.356 5.07494 68.8583 4.57261C69.3607 4.07028 69.6429 3.38897 69.6429 2.67857C69.6429 1.96817 69.3607 1.28686 68.8583 0.784535C68.356 0.282206 67.6747 0 66.9643 0H8.03571C7.32531 0 6.64401 0.282206 6.14168 0.784535C5.63935 1.28686 5.35714 1.96817 5.35714 2.67857C5.35714 3.38897 5.63935 4.07028 6.14168 4.57261C6.64401 5.07494 7.32531 5.35714 8.03571 5.35714H10.7143V69.6429H2.67857C1.96817 69.6429 1.28686 69.9251 0.784535 70.4274C0.282206 70.9297 0 71.611 0 72.3214C0 73.0318 0.282206 73.7131 0.784535 74.2155C1.28686 74.7178 1.96817 75 2.67857 75H72.3214C73.0318 75 73.7131 74.7178 74.2155 74.2155C74.7178 73.7131 75 73.0318 75 72.3214C75 71.611 74.7178 70.9297 74.2155 70.4274C73.7131 69.9251 73.0318 69.6429 72.3214 69.6429ZM16.0714 5.35714H58.9286V69.6429H48.2143V56.25C48.2143 55.5396 47.9321 54.8583 47.4298 54.356C46.9274 53.8536 46.2461 53.5714 45.5357 53.5714H29.4643C28.7539 53.5714 28.0726 53.8536 27.5703 54.356C27.0679 54.8583 26.7857 55.5396 26.7857 56.25V69.6429H16.0714V5.35714ZM42.8571 69.6429H32.1429V58.9286H42.8571V69.6429ZM24.1071 16.0714C24.1071 15.361 24.3893 14.6797 24.8917 14.1774C25.394 13.6751 26.0753 13.3929 26.7857 13.3929H32.1429C32.8533 13.3929 33.5346 13.6751 34.0369 14.1774C34.5392 14.6797 34.8214 15.361 34.8214 16.0714C34.8214 16.7818 34.5392 17.4631 34.0369 17.9655C33.5346 18.4678 32.8533 18.75 32.1429 18.75H26.7857C26.0753 18.75 25.394 18.4678 24.8917 17.9655C24.3893 17.4631 24.1071 16.7818 24.1071 16.0714ZM40.1786 16.0714C40.1786 15.361 40.4608 14.6797 40.9631 14.1774C41.4654 13.6751 42.1467 13.3929 42.8571 13.3929H48.2143C48.9247 13.3929 49.606 13.6751 50.1083 14.1774C50.6107 14.6797 50.8929 15.361 50.8929 16.0714C50.8929 16.7818 50.6107 17.4631 50.1083 17.9655C49.606 18.4678 48.9247 18.75 48.2143 18.75H42.8571C42.1467 18.75 41.4654 18.4678 40.9631 17.9655C40.4608 17.4631 40.1786 16.7818 40.1786 16.0714ZM24.1071 29.4643C24.1071 28.7539 24.3893 28.0726 24.8917 27.5703C25.394 27.0679 26.0753 26.7857 26.7857 26.7857H32.1429C32.8533 26.7857 33.5346 27.0679 34.0369 27.5703C34.5392 28.0726 34.8214 28.7539 34.8214 29.4643C34.8214 30.1747 34.5392 30.856 34.0369 31.3583C33.5346 31.8607 32.8533 32.1429 32.1429 32.1429H26.7857C26.0753 32.1429 25.394 31.8607 24.8917 31.3583C24.3893 30.856 24.1071 30.1747 24.1071 29.4643ZM40.1786 29.4643C40.1786 28.7539 40.4608 28.0726 40.9631 27.5703C41.4654 27.0679 42.1467 26.7857 42.8571 26.7857H48.2143C48.9247 26.7857 49.606 27.0679 50.1083 27.5703C50.6107 28.0726 50.8929 28.7539 50.8929 29.4643C50.8929 30.1747 50.6107 30.856 50.1083 31.3583C49.606 31.8607 48.9247 32.1429 48.2143 32.1429H42.8571C42.1467 32.1429 41.4654 31.8607 40.9631 31.3583C40.4608 30.856 40.1786 30.1747 40.1786 29.4643ZM24.1071 42.8571C24.1071 42.1467 24.3893 41.4654 24.8917 40.9631C25.394 40.4608 26.0753 40.1786 26.7857 40.1786H32.1429C32.8533 40.1786 33.5346 40.4608 34.0369 40.9631C34.5392 41.4654 34.8214 42.1467 34.8214 42.8571C34.8214 43.5675 34.5392 44.2489 34.0369 44.7512C33.5346 45.2535 32.8533 45.5357 32.1429 45.5357H26.7857C26.0753 45.5357 25.394 45.2535 24.8917 44.7512C24.3893 44.2489 24.1071 43.5675 24.1071 42.8571ZM40.1786 42.8571C40.1786 42.1467 40.4608 41.4654 40.9631 40.9631C41.4654 40.4608 42.1467 40.1786 42.8571 40.1786H48.2143C48.9247 40.1786 49.606 40.4608 50.1083 40.9631C50.6107 41.4654 50.8929 42.1467 50.8929 42.8571C50.8929 43.5675 50.6107 44.2489 50.1083 44.7512C49.606 45.2535 48.9247 45.5357 48.2143 45.5357H42.8571C42.1467 45.5357 41.4654 45.2535 40.9631 44.7512C40.4608 44.2489 40.1786 43.5675 40.1786 42.8571Z" fill="black"/>
</svg>
