<svg width="75" height="75" viewBox="0 0 75 75" fill="none" xmlns="http://www.w3.org/2000/svg">
<path d="M56.25 27.6316C56.25 48.6711 18.75 48.6711 18.75 27.6316H28.125C28.125 38.1711 46.875 38.1711 46.875 27.6316M75 63.1579V75H0V63.1579C0 52.6184 24.9844 47.3684 37.5 47.3684C50.0156 47.3684 75 52.6184 75 63.1579ZM66.0938 63.1579C66.0938 60.6316 51.4219 54.8684 37.5 54.8684C23.5781 54.8684 8.90625 60.6316 8.90625 63.1579V67.5H66.0938M39.8438 0C41.1562 0 42.1875 0.868421 42.1875 1.97368V13.8158H46.875V3.94737C50.1924 5.24022 52.9718 7.34287 54.8525 9.98244C56.7332 12.622 57.6283 15.6767 57.4219 18.75C57.4219 18.75 60.7031 19.3026 60.9375 23.6842H14.0625C14.0625 19.3026 17.5781 18.75 17.5781 18.75C17.3716 15.6767 18.2668 12.622 20.1475 9.98244C22.0282 7.34287 24.8076 5.24022 28.125 3.94737V13.8158H32.8125V1.97368C32.8125 0.868421 33.8438 0 35.1562 0" fill="black"/>
</svg>
