<svg width="40" height="40" viewBox="0 0 40 40" fill="none" xmlns="http://www.w3.org/2000/svg">
<path d="M30 14.7368C30 25.9579 10 25.9579 10 14.7368H15C15 20.3579 25 20.3579 25 14.7368M40 33.6842V40H0V33.6842C0 28.0632 13.325 25.2632 20 25.2632C26.675 25.2632 40 28.0632 40 33.6842ZM35.25 33.6842C35.25 32.3368 27.425 29.2632 20 29.2632C12.575 29.2632 4.75 32.3368 4.75 33.6842V36H35.25M21.25 0C21.95 0 22.5 0.463158 22.5 1.05263V7.36842H25V2.10526C26.7693 2.79479 28.2516 3.9162 29.2546 5.32397C30.2577 6.73174 30.7351 8.36089 30.625 10C30.625 10 32.375 10.2947 32.5 12.6316H7.5C7.5 10.2947 9.375 10 9.375 10C9.26488 8.36089 9.74232 6.73174 10.7454 5.32397C11.7484 3.9162 13.2307 2.79479 15 2.10526V7.36842H17.5V1.05263C17.5 0.463158 18.05 0 18.75 0" fill="white"/>
</svg>
