<svg width="75" height="75" viewBox="0 0 75 75" fill="none" xmlns="http://www.w3.org/2000/svg">
<path d="M37.5 37.5C32.3437 37.5 27.9297 35.6641 24.2578 31.9922C20.5859 28.3203 18.75 23.9062 18.75 18.75C18.75 13.5938 20.5859 9.17969 24.2578 5.50781C27.9297 1.83594 32.3437 0 37.5 0C42.6562 0 47.0703 1.83594 50.7422 5.50781C54.4141 9.17969 56.25 13.5938 56.25 18.75C56.25 23.9062 54.4141 28.3203 50.7422 31.9922C47.0703 35.6641 42.6562 37.5 37.5 37.5ZM0 75V61.875C0 59.2188 0.684376 56.7781 2.05313 54.5531C3.42188 52.3281 5.2375 50.6281 7.5 49.4531C12.3437 47.0312 17.2656 45.2156 22.2656 44.0062C27.2656 42.7969 32.3437 42.1906 37.5 42.1875C42.6562 42.1844 47.7344 42.7906 52.7344 44.0062C57.7344 45.2219 62.6562 47.0375 67.5 49.4531C69.7656 50.625 71.5828 52.325 72.9516 54.5531C74.3203 56.7812 75.0031 59.2219 75 61.875V75H0ZM9.375 65.625H65.625V61.875C65.625 61.0156 65.4109 60.2344 64.9828 59.5313C64.5547 58.8281 63.9875 58.2812 63.2812 57.8906C59.0625 55.7812 54.8047 54.2 50.5078 53.1469C46.2109 52.0938 41.875 51.5656 37.5 51.5625C33.125 51.5594 28.7891 52.0875 24.4922 53.1469C20.1953 54.2063 15.9375 55.7875 11.7187 57.8906C11.0156 58.2812 10.4484 58.8281 10.0172 59.5313C9.58594 60.2344 9.37187 61.0156 9.375 61.875V65.625ZM37.5 28.125C40.0781 28.125 42.2859 27.2078 44.1234 25.3734C45.9609 23.5391 46.8781 21.3312 46.875 18.75C46.8719 16.1688 45.9547 13.9625 44.1234 12.1312C42.2922 10.3 40.0844 9.38125 37.5 9.375C34.9156 9.36875 32.7094 10.2875 30.8812 12.1312C29.0531 13.975 28.1344 16.1812 28.125 18.75C28.1156 21.3188 29.0344 23.5266 30.8812 25.3734C32.7281 27.2203 34.9344 28.1375 37.5 28.125Z" fill="black"/>
</svg>
