<svg width="40" height="40" viewBox="0 0 40 40" fill="none" xmlns="http://www.w3.org/2000/svg">
<path d="M20 20C17.25 20 14.8958 19.0208 12.9375 17.0625C10.9792 15.1042 10 12.75 10 10C10 7.25 10.9792 4.89583 12.9375 2.9375C14.8958 0.979167 17.25 0 20 0C22.75 0 25.1042 0.979167 27.0625 2.9375C29.0208 4.89583 30 7.25 30 10C30 12.75 29.0208 15.1042 27.0625 17.0625C25.1042 19.0208 22.75 20 20 20ZM0 40V33C0 31.5833 0.365 30.2817 1.095 29.095C1.825 27.9083 2.79333 27.0017 4 26.375C6.58333 25.0833 9.20833 24.115 11.875 23.47C14.5417 22.825 17.25 22.5017 20 22.5C22.75 22.4983 25.4583 22.8217 28.125 23.47C30.7917 24.1183 33.4167 25.0867 36 26.375C37.2083 27 38.1775 27.9067 38.9075 29.095C39.6375 30.2833 40.0017 31.585 40 33V40H0ZM5 35H35V33C35 32.5417 34.8858 32.125 34.6575 31.75C34.4292 31.375 34.1267 31.0833 33.75 30.875C31.5 29.75 29.2292 28.9067 26.9375 28.345C24.6458 27.7833 22.3333 27.5017 20 27.5C17.6667 27.4983 15.3542 27.78 13.0625 28.345C10.7708 28.91 8.5 29.7533 6.25 30.875C5.875 31.0833 5.5725 31.375 5.3425 31.75C5.1125 32.125 4.99833 32.5417 5 33V35ZM20 15C21.375 15 22.5525 14.5108 23.5325 13.5325C24.5125 12.5542 25.0017 11.3767 25 10C24.9983 8.62333 24.5092 7.44667 23.5325 6.47C22.5558 5.49333 21.3783 5.00333 20 5C18.6217 4.99667 17.445 5.48667 16.47 6.47C15.495 7.45333 15.005 8.63 15 10C14.995 11.37 15.485 12.5475 16.47 13.5325C17.455 14.5175 18.6317 15.0067 20 15Z" fill="white"/>
</svg>
